<svg
  xmlns="http://www.w3.org/2000/svg"
  xmlns:xlink="http://www.w3.org/1999/xlink"
  width="195.31mm"
  height="178.65mm"
  version="1.1"
  viewBox="0 0 195.31 178.65"
  xml:space="preserve"
>

  <style>
    .base-color {
      fill: #4d4d4d;
    }

    .shadow-color {
      fill: #241c1c;
    }

    .highlight-color {
      fill: #f9f9f9;
    }

    @media (prefers-color-scheme: dark) {
      .base-color {
        fill: #e5e7eb;
      }

      .shadow-color {
        fill: #f9f9f9;
      }

      .highlight-color {
        fill: #241c1c;
      }
    }
  </style>
  <g transform="translate(-28.731 265.57)">
    <path
      d="m165.5-87.35c-40.75-9.3384-105.77-23.435-122.13-27.444-16.369-4.0086-16.301-11.26-12.64-20.765 6.542-20.29 14.525-40.125 22.165-60.034 6.3388-14.829 16.91-27.343 25.208-41.079 6.0978-8.7105 11.273-18.251 18.002-26.437 7.3312-6.003 16.384 0.60611 24.007 2.4974 25.776 9.0775 52.967 13.518 80.194 14.983 7.1175 2.1431 23.893 51.279 23.743 67.177-15.215 28.905-29.482 58.328-44.61 87.268-2.8903 4.25-9.3157 4.8325-13.934 3.8325z"
      fill="#4d4d4d"
      class="base-color"
      stroke-width=".81309"
    ></path>
    <path
      d="m55.911-198.52c-2.7387 2.3547-14.451 43.676-22.545 60.667-2.2157 4.9852-2.8306 10.372-0.71211 14.707 1.3912 2.8468 9.449 6.5436 16.454 7.8985 39.302 9.6139 97.405 22.095 113.54 23.06 16.139 0.96501-11.997-73.148-2.304-83.645s-2.0587 7.3685-36.241 1.0746c-43.364-7.9844-66.762-24.996-68.196-23.763z"
      fill="#241c1c"
      class="shadow-color"
      stroke-width=".81309"
    ></path>
    <path
      d="m197.86-234.36c-8.4485 8.896-32.385 44.282-31.912 49.527 0.47241 5.2456 2.722-1.6228 8.8696-9.9567 6.1476-8.3339 31.491-48.467 23.043-39.571zm-38.035 61.236c-2.3827 6.2403 6.9176 64.035 10.24 68.725 3.3228 4.6899-7.8577-74.965-10.24-68.725z"
      fill="#f9f9f9"
      class="highlight-color"
      stroke-width=".81309"
    ></path>
    <path
      d="m118.49-249.33-5.9326 8.7487c1.5851 1.2178 3.1492 2.47 4.6915 3.7564 1.6114 1.2674 3.2016 2.5297 4.7708 3.7862-2.4878 0.0621-4.997 0.13339-7.5276 0.21438l-7.3185 0.18261-5.7394 8.4639c4.7762-0.15618 9.621-0.30729 14.535-0.45314 4.9859-0.17959 9.9651-0.35814 14.937-0.5358l6.1662-8.5326c-3.0565-2.5894-6.155-5.1886-9.2947-7.7971-3.1114-2.6384-6.2074-5.2496-9.2876-7.8335zm-19.407 39.543c-1.2331-0.38909-2.5254-0.53775-3.8754-0.44636-1.3039 0.10449-2.4968 0.42689-3.5785 0.96603-1.0578 0.50731-1.8706 1.1817-2.4396 2.0224-0.56752 0.83843-0.80203 1.7084-0.70444 2.6108 0.0974 0.90107 0.50379 1.7195 1.2186 2.4567 0.75646 0.75075 1.7386 1.322 2.948 1.7134 1.2114 0.39216 2.4434 0.53685 3.6966 0.43383 1.2987-0.0897 2.4937-0.39632 3.5859-0.92116 1.1381-0.51288 2.0036-1.1894 2.5945-2.0301 0.59254-0.84302 0.8133-1.7148 0.66118-2.6142-0.0884-0.91734-0.49635-1.7516-1.2246-2.5017-0.68553-0.73655-1.6468-1.2998-2.8821-1.6896z"
      fill="#f9f9f9"
      class="highlight-color"
      stroke-width=".28079"
    ></path>
  </g>
</svg>
